<svg xmlns="http://www.w3.org/2000/svg" viewBox="0 0 32 32" fill="none">
  <!-- Background -->
  <rect width="32" height="32" rx="4" fill="url(#bgGradient)"/>

  <!-- Circuit lines -->
  <path d="M4 8 L12 8 L12 12 L20 12 L20 16 L28 16"
        stroke="#60a5fa" stroke-width="1" fill="none" opacity="0.8"/>
  <path d="M4 24 L10 24 L10 20 L16 20 L16 16"
        stroke="#93c5fd" stroke-width="1" fill="none" opacity="0.6"/>

  <!-- Dollar sign -->
  <g transform="translate(6, 10)">
    <path d="M2 3 L2 1 L4 1 L4 3 L6 3 L6 4.5 L4 4.5 L4 7.5 L2 7.5 L2 4.5 L0 4.5 L0 3 Z"
          fill="#fbbf24"/>
  </g>

  <!-- Code bracket -->
  <g transform="translate(22, 6)">
    <path d="M1 2 L3 2 L3 4 L1 4 Z M1 6 L3 6 L3 8 L1 8 Z"
          stroke="#fbbf24" stroke-width="1" fill="none"/>
  </g>

  <!-- Fun accent dots -->
  <circle cx="8" cy="28" r="1" fill="#fbbf24" opacity="0.8"/>
  <circle cx="26" cy="4" r="0.5" fill="#60a5fa" opacity="0.9"/>

  <!-- Gradients -->
  <defs>
    <linearGradient id="bgGradient" x1="0%" y1="0%" x2="100%" y2="100%">
      <stop offset="0%" style="stop-color:#3b82f6"/>
      <stop offset="100%" style="stop-color:#1e40af"/>
    </linearGradient>
  </defs>
</svg>
