<svg xmlns="http://www.w3.org/2000/svg" viewBox="0 0 120 80" fill="none">
  <!-- Background with gradient -->
  <defs>
    <linearGradient id="bgGradient" x1="0%" y1="0%" x2="100%" y2="100%">
      <stop offset="0%" style="stop-color:#3b82f6;stop-opacity:1" />
      <stop offset="100%" style="stop-color:#1e40af;stop-opacity:1" />
    </linearGradient>
    <linearGradient id="textGradient" x1="0%" y1="0%" x2="100%" y2="0%">
      <stop offset="0%" style="stop-color:#fbbf24;stop-opacity:1" />
      <stop offset="100%" style="stop-color:#f59e0b;stop-opacity:1" />
    </linearGradient>
  </defs>

  <!-- Fun geometric background -->
  <rect width="120" height="80" rx="8" fill="url(#bgGradient)"/>

  <!-- Circuit pattern -->
  <path d="M10 15 L30 15 L30 25 L50 25 L50 35 L70 35 L70 45 L90 45 L90 55 L110 55"
        stroke="#60a5fa" stroke-width="1" fill="none" opacity="0.6"/>
  <path d="M10 65 L25 65 L25 50 L40 50 L40 35 L55 35 L55 20"
        stroke="#93c5fd" stroke-width="1" fill="none" opacity="0.4"/>

  <!-- Dollar sign -->
  <g transform="translate(15, 20)">
    <path d="M5 8 L5 2 L8 2 L8 8 L12 8 L12 11 L8 11 L8 17 L5 17 L5 11 L1 11 L1 8 Z"
          fill="url(#textGradient)" opacity="0.9"/>
  </g>

  <!-- Code brackets -->
  <g transform="translate(85, 15)">
    <path d="M2 5 L8 5 L8 10 L2 10 Z M2 15 L8 15 L8 20 L2 20 Z"
          stroke="url(#textGradient)" stroke-width="2" fill="none" opacity="0.8"/>
    <path d="M12 5 L18 5 L18 10 L12 10 Z M12 15 L18 15 L18 20 L12 20 Z"
          stroke="url(#textGradient)" stroke-width="2" fill="none" opacity="0.8"/>
  </g>

  <!-- Stylized "D" -->
  <g transform="translate(45, 10)">
    <path d="M15 5 L25 5 L30 15 L30 35 L25 45 L15 45 L10 35 L10 15 Z M15 10 L20 10 L23 15 L23 35 L20 40 L15 40 L15 10 Z"
          fill="url(#textGradient)"/>
  </g>

  <!-- Fun dots/elements -->
  <circle cx="20" cy="70" r="2" fill="#fbbf24" opacity="0.7"/>
  <circle cx="95" cy="10" r="1.5" fill="#60a5fa" opacity="0.8"/>
  <circle cx="60" cy="60" r="1" fill="#93c5fd" opacity="0.6"/>
</svg>