<svg width="1200" height="800" xmlns="http://www.w3.org/2000/svg">
  <defs>
    <linearGradient id="grad4" x1="0%" y1="0%" x2="100%" y2="100%">
      <stop offset="0%" style="stop-color:#10b981;stop-opacity:1" />
      <stop offset="100%" style="stop-color:#059669;stop-opacity:1" />
    </linearGradient>
  </defs>
  <rect width="1200" height="800" fill="url(#grad4)"/>
  <text x="600" y="350" font-family="Arial, sans-serif" font-size="48" font-weight="bold" text-anchor="middle" fill="white">
    WorldDex
  </text>
  <text x="600" y="420" font-family="Arial, sans-serif" font-size="24" text-anchor="middle" fill="white" opacity="0.9">
    Global Economic Index
  </text>
  <text x="600" y="480" font-family="Arial, sans-serif" font-size="18" text-anchor="middle" fill="white" opacity="0.7">
    Interactive data visualization platform
  </text>
  <!-- World map outline -->
  <path d="M300 550 Q350 540 400 550 Q450 560 500 550 Q550 540 600 550 Q650 560 700 550 Q750 540 800 550 Q850 560 900 550"
        stroke="white" stroke-width="3" fill="none"/>
  <!-- Data points on map -->
  <circle cx="350" cy="560" r="4" fill="white"/>
  <circle cx="450" cy="555" r="4" fill="white"/>
  <circle cx="550" cy="565" r="4" fill="white"/>
  <circle cx="650" cy="560" r="4" fill="white"/>
  <circle cx="750" cy="555" r="4" fill="white"/>
  <circle cx="850" cy="565" r="4" fill="white"/>
  <!-- Dashboard mockup -->
  <rect x="150" y="600" width="350" height="150" fill="rgba(255,255,255,0.1)" rx="8"/>
  <rect x="520" y="600" width="350" height="150" fill="rgba(255,255,255,0.1)" rx="8"/>
  <!-- Mock charts -->
  <rect x="170" y="620" width="80" height="40" fill="rgba(255,255,255,0.3)" rx="4"/>
  <rect x="270" y="620" width="80" height="40" fill="rgba(255,255,255,0.3)" rx="4"/>
  <rect x="540" y="620" width="80" height="40" fill="rgba(255,255,255,0.3)" rx="4"/>
  <rect x="640" y="620" width="80" height="40" fill="rgba(255,255,255,0.3)" rx="4"/>
  <text x="600" y="720" font-family="Arial, sans-serif" font-size="14" text-anchor="middle" fill="white">
    Global Economic Dashboard
  </text>
  <text x="200" y="780" font-family="monospace" font-size="14" fill="white">
    Countries: 195+ | Data Accuracy: 99.8%
  </text>
</svg>
